<mxfile host="app.diagrams.net" agent="Mozilla/5.0 (Windows NT 10.0; Win64; x64) AppleWebKit/537.36 (KHTML, like Gecko) Chrome/135.0.0.0 Safari/537.36" version="26.2.14">
  <diagram name="Trang-1" id="XRQIb4O5lvWE0otKBHXJ">
    <mxGraphModel dx="931" dy="1020" grid="1" gridSize="10" guides="1" tooltips="1" connect="1" arrows="1" fold="1" page="1" pageScale="1" pageWidth="827" pageHeight="1169" math="0" shadow="0">
      <root>
        <mxCell id="0" />
        <mxCell id="1" parent="0" />
        <mxCell id="TLfe5dtm4iSKD1C7Y-9a-4" style="edgeStyle=orthogonalEdgeStyle;rounded=0;orthogonalLoop=1;jettySize=auto;html=1;entryX=0;entryY=0.25;entryDx=0;entryDy=0;exitX=1;exitY=0.25;exitDx=0;exitDy=0;" edge="1" parent="1" source="TLfe5dtm4iSKD1C7Y-9a-1" target="TLfe5dtm4iSKD1C7Y-9a-2">
          <mxGeometry relative="1" as="geometry" />
        </mxCell>
        <mxCell id="TLfe5dtm4iSKD1C7Y-9a-5" value="1. Yêu cầu sửa thông tin" style="edgeLabel;html=1;align=center;verticalAlign=middle;resizable=0;points=[];" vertex="1" connectable="0" parent="TLfe5dtm4iSKD1C7Y-9a-4">
          <mxGeometry y="-3" relative="1" as="geometry">
            <mxPoint y="-23" as="offset" />
          </mxGeometry>
        </mxCell>
        <mxCell id="TLfe5dtm4iSKD1C7Y-9a-1" value="User(admin/Khách hàng)" style="rounded=0;whiteSpace=wrap;html=1;" vertex="1" parent="1">
          <mxGeometry x="120" y="160" width="120" height="80" as="geometry" />
        </mxCell>
        <mxCell id="TLfe5dtm4iSKD1C7Y-9a-6" style="edgeStyle=orthogonalEdgeStyle;rounded=0;orthogonalLoop=1;jettySize=auto;html=1;entryX=0;entryY=0.25;entryDx=0;entryDy=0;exitX=1;exitY=0.25;exitDx=0;exitDy=0;" edge="1" parent="1" source="TLfe5dtm4iSKD1C7Y-9a-2" target="TLfe5dtm4iSKD1C7Y-9a-3">
          <mxGeometry relative="1" as="geometry">
            <mxPoint x="550" y="180" as="sourcePoint" />
          </mxGeometry>
        </mxCell>
        <mxCell id="TLfe5dtm4iSKD1C7Y-9a-7" value="2. Cập nhật thông tin&amp;nbsp;" style="edgeLabel;html=1;align=center;verticalAlign=middle;resizable=0;points=[];" vertex="1" connectable="0" parent="TLfe5dtm4iSKD1C7Y-9a-6">
          <mxGeometry x="-0.0909" y="5" relative="1" as="geometry">
            <mxPoint x="10" y="-15" as="offset" />
          </mxGeometry>
        </mxCell>
        <mxCell id="TLfe5dtm4iSKD1C7Y-9a-10" style="edgeStyle=orthogonalEdgeStyle;rounded=0;orthogonalLoop=1;jettySize=auto;html=1;entryX=1;entryY=0.75;entryDx=0;entryDy=0;exitX=0;exitY=0.75;exitDx=0;exitDy=0;" edge="1" parent="1" source="TLfe5dtm4iSKD1C7Y-9a-2" target="TLfe5dtm4iSKD1C7Y-9a-1">
          <mxGeometry relative="1" as="geometry" />
        </mxCell>
        <mxCell id="TLfe5dtm4iSKD1C7Y-9a-11" value="4. Thống báo đến người dùng" style="edgeLabel;html=1;align=center;verticalAlign=middle;resizable=0;points=[];" vertex="1" connectable="0" parent="TLfe5dtm4iSKD1C7Y-9a-10">
          <mxGeometry x="-0.0917" y="3" relative="1" as="geometry">
            <mxPoint x="-1" y="17" as="offset" />
          </mxGeometry>
        </mxCell>
        <mxCell id="TLfe5dtm4iSKD1C7Y-9a-2" value="Giao diện&amp;nbsp;" style="rounded=0;whiteSpace=wrap;html=1;" vertex="1" parent="1">
          <mxGeometry x="420" y="160" width="120" height="80" as="geometry" />
        </mxCell>
        <mxCell id="TLfe5dtm4iSKD1C7Y-9a-8" style="edgeStyle=orthogonalEdgeStyle;rounded=0;orthogonalLoop=1;jettySize=auto;html=1;entryX=0.5;entryY=1;entryDx=0;entryDy=0;exitX=0.5;exitY=1;exitDx=0;exitDy=0;" edge="1" parent="1" source="TLfe5dtm4iSKD1C7Y-9a-3" target="TLfe5dtm4iSKD1C7Y-9a-2">
          <mxGeometry relative="1" as="geometry">
            <mxPoint x="480" y="350" as="targetPoint" />
            <Array as="points">
              <mxPoint x="730" y="360" />
              <mxPoint x="481" y="360" />
              <mxPoint x="481" y="240" />
            </Array>
          </mxGeometry>
        </mxCell>
        <mxCell id="TLfe5dtm4iSKD1C7Y-9a-9" value="3. Phản hồi thông tin(thành công/thất bại)" style="edgeLabel;html=1;align=center;verticalAlign=middle;resizable=0;points=[];" vertex="1" connectable="0" parent="TLfe5dtm4iSKD1C7Y-9a-8">
          <mxGeometry x="0.0248" y="-5" relative="1" as="geometry">
            <mxPoint x="11" y="-5" as="offset" />
          </mxGeometry>
        </mxCell>
        <mxCell id="TLfe5dtm4iSKD1C7Y-9a-3" value="Database" style="shape=partialRectangle;whiteSpace=wrap;html=1;left=0;right=0;fillColor=none;" vertex="1" parent="1">
          <mxGeometry x="670" y="160" width="120" height="80" as="geometry" />
        </mxCell>
      </root>
    </mxGraphModel>
  </diagram>
</mxfile>
